<svg width="1600" height="900" viewBox="0 0 1600 900" fill="none" xmlns="http://www.w3.org/2000/svg">
  <defs>
    <linearGradient id="sky" x1="800" y1="0" x2="800" y2="520" gradientUnits="userSpaceOnUse">
      <stop stop-color="#2E98EE"/>
      <stop offset="0.48" stop-color="#82D8FF"/>
      <stop offset="1" stop-color="#D8F4FF"/>
    </linearGradient>
    <linearGradient id="water" x1="800" y1="500" x2="800" y2="900" gradientUnits="userSpaceOnUse">
      <stop stop-color="#28AADE"/>
      <stop offset="0.55" stop-color="#0B5F95"/>
      <stop offset="1" stop-color="#083A61"/>
    </linearGradient>
    <linearGradient id="sand" x1="1320" y1="520" x2="1540" y2="860" gradientUnits="userSpaceOnUse">
      <stop stop-color="#FCE6A9"/>
      <stop offset="1" stop-color="#C8954F"/>
    </linearGradient>
    <linearGradient id="volcano" x1="900" y1="130" x2="900" y2="520" gradientUnits="userSpaceOnUse">
      <stop stop-color="#BF7A63"/>
      <stop offset="0.45" stop-color="#9B5A43"/>
      <stop offset="1" stop-color="#4B607A"/>
    </linearGradient>
    <linearGradient id="roof" x1="1220" y1="360" x2="1420" y2="520" gradientUnits="userSpaceOnUse">
      <stop stop-color="#FFB44D"/>
      <stop offset="1" stop-color="#D1621E"/>
    </linearGradient>
  </defs>
  <rect width="1600" height="900" fill="url(#sky)"/>
  <g opacity="0.95">
    <ellipse cx="240" cy="145" rx="120" ry="44" fill="#F5FCFF"/>
    <ellipse cx="340" cy="150" rx="100" ry="40" fill="#F5FCFF"/>
    <ellipse cx="1280" cy="132" rx="130" ry="46" fill="#F6FDFF"/>
    <ellipse cx="1380" cy="146" rx="92" ry="36" fill="#F6FDFF"/>
    <ellipse cx="820" cy="96" rx="90" ry="34" fill="#F6FDFF"/>
  </g>
  <path d="M0 465C148 398 276 404 412 458C562 517 691 528 852 456C1020 381 1168 386 1344 448C1450 485 1537 495 1600 482V900H0V465Z" fill="#3E7A54"/>
  <path d="M0 500C130 470 271 456 392 475C539 499 681 503 853 474C1048 441 1188 457 1362 503C1458 529 1536 541 1600 537V900H0V500Z" fill="#56865E"/>
  <path d="M820 146L660 455H980L820 146Z" fill="url(#volcano)"/>
  <path d="M808 118L770 193L846 193L808 118Z" fill="#F5EEE3"/>
  <path d="M0 503H1600V900H0V503Z" fill="url(#water)"/>
  <path d="M0 640C213 613 375 597 559 620C709 639 867 657 1047 625C1240 590 1420 595 1600 653V900H0V640Z" fill="#0C6EAA" opacity="0.82"/>
  <path d="M0 690C220 655 390 653 548 687C706 721 891 725 1110 684C1292 650 1458 648 1600 678V900H0V690Z" fill="#0A5284" opacity="0.9"/>
  <path d="M1088 522C1192 514 1298 520 1418 552C1492 572 1546 611 1600 672V900H954C1016 794 1042 655 1088 522Z" fill="url(#sand)"/>
  <path d="M1108 530C1218 521 1334 534 1464 574C1517 590 1563 618 1600 646V900H1040C1104 787 1117 643 1108 530Z" fill="#E8B26B" opacity="0.35"/>
  <path d="M80 600C255 568 415 562 610 589C802 616 998 613 1230 578C1367 557 1498 559 1600 575" stroke="#CFF8FF" stroke-width="6" stroke-linecap="round" opacity="0.8"/>
  <path d="M1040 585L1180 420H1420L1568 558L1412 608H1076L1040 585Z" fill="url(#roof)"/>
  <rect x="1096" y="558" width="336" height="120" rx="10" fill="#F4E3BD"/>
  <rect x="1128" y="592" width="64" height="78" rx="5" fill="#84533E"/>
  <rect x="1218" y="586" width="82" height="54" rx="5" fill="#D7F3FF"/>
  <rect x="1328" y="586" width="74" height="54" rx="5" fill="#D7F3FF"/>
  <rect x="1206" y="650" width="154" height="16" fill="#B18058"/>
  <path d="M1186 678H1370L1340 724H1150L1186 678Z" fill="#D1A16D"/>
  <path d="M1030 598L1096 558V678H1016L1030 598Z" fill="#F0D0A7"/>
  <rect x="1048" y="620" width="26" height="56" rx="5" fill="#8E5C42"/>
  <g>
    <rect x="1406" y="538" width="14" height="98" rx="7" fill="#6A4426"/>
    <path d="M1412 460C1458 470 1493 497 1512 552C1460 546 1420 535 1412 460Z" fill="#4B9A49"/>
    <path d="M1408 466C1367 482 1342 506 1338 548C1386 542 1412 522 1408 466Z" fill="#5EB95A"/>
    <path d="M1413 478C1450 430 1497 404 1555 398C1534 452 1484 484 1413 478Z" fill="#74C86A"/>
    <path d="M1407 478C1366 432 1319 406 1262 400C1283 452 1330 482 1407 478Z" fill="#63B95D"/>
    <path d="M1411 486C1450 516 1470 556 1476 604C1430 586 1410 548 1411 486Z" fill="#3B8742"/>
  </g>
  <g>
    <rect x="1502" y="520" width="12" height="104" rx="6" fill="#6A4426"/>
    <path d="M1508 452C1548 463 1576 492 1592 548C1548 541 1515 524 1508 452Z" fill="#5EB95A"/>
    <path d="M1505 456C1468 472 1442 495 1437 545C1477 540 1506 518 1505 456Z" fill="#6FC96C"/>
    <path d="M1508 466C1546 423 1588 398 1600 398V462C1572 477 1540 483 1508 466Z" fill="#7ED472"/>
  </g>
  <g opacity="0.95">
    <rect x="184" y="470" width="14" height="130" rx="7" fill="#6A4426"/>
    <path d="M191 382C238 394 277 432 295 492C242 486 198 468 191 382Z" fill="#55AA55"/>
    <path d="M188 386C146 401 113 432 101 489C154 484 187 462 188 386Z" fill="#6AC768"/>
    <path d="M190 394C230 347 280 320 342 315C318 373 269 399 190 394Z" fill="#7DD76F"/>
    <path d="M189 402C228 433 249 473 255 538C207 520 188 471 189 402Z" fill="#3E8D44"/>
  </g>
</svg>
