<svg width="900" height="675" viewBox="0 0 900 675" fill="none" xmlns="http://www.w3.org/2000/svg">
  <defs>
    <linearGradient id="sky" x1="450" y1="0" x2="450" y2="330" gradientUnits="userSpaceOnUse">
      <stop stop-color="#2493E8"/>
      <stop offset="0.55" stop-color="#89DDFD"/>
      <stop offset="1" stop-color="#EBF9FF"/>
    </linearGradient>
    <linearGradient id="water" x1="450" y1="345" x2="450" y2="675" gradientUnits="userSpaceOnUse">
      <stop stop-color="#3FA9DD"/>
      <stop offset="1" stop-color="#0A507A"/>
    </linearGradient>
    <linearGradient id="roof" x1="535" y1="276" x2="760" y2="398" gradientUnits="userSpaceOnUse">
      <stop stop-color="#FFB44C"/>
      <stop offset="1" stop-color="#D0611F"/>
    </linearGradient>
  </defs>
  <rect width="900" height="675" fill="url(#sky)"/>
  <ellipse cx="680" cy="106" rx="120" ry="42" fill="#F5FCFF"/>
  <ellipse cx="248" cy="118" rx="100" ry="36" fill="#F5FCFF"/>
  <path d="M0 312C112 262 229 249 338 280C454 313 546 322 669 284C751 260 829 255 900 268V675H0V312Z" fill="#518563"/>
  <path d="M465 138L330 364H600L465 138Z" fill="#6E8067"/>
  <path d="M454 116L423 177H485L454 116Z" fill="#F3F1EA"/>
  <path d="M0 368H900V675H0V368Z" fill="url(#water)"/>
  <path d="M0 458C125 433 248 430 357 448C483 469 622 474 900 445V675H0V458Z" fill="#0D6EA4" opacity="0.84"/>
  <path d="M540 455C615 425 704 422 900 465V675H470C511 598 516 507 540 455Z" fill="#D7B170"/>
  <path d="M560 382L650 282H772L856 374L780 414H576L560 382Z" fill="url(#roof)"/>
  <rect x="589" y="414" width="196" height="96" rx="8" fill="#F2E4C2"/>
  <rect x="622" y="442" width="42" height="68" rx="4" fill="#7E503A"/>
  <rect x="688" y="438" width="58" height="42" rx="4" fill="#D5F3FF"/>
  <rect x="589" y="468" width="196" height="14" fill="#AE7A54"/>
  <path d="M589 510H785L752 556H552L589 510Z" fill="#C99763"/>
  <path d="M0 484C148 458 274 458 392 480C533 506 672 510 900 480" stroke="#DDF9FF" stroke-width="5" stroke-linecap="round" opacity="0.74"/>
</svg>
